<mxfile host="app.diagrams.net" agent="Mozilla/5.0 (Windows NT 10.0; Win64; x64) AppleWebKit/537.36 (KHTML, like Gecko) Chrome/130.0.0.0 Safari/537.36" version="24.8.3">
  <diagram name="Página-1" id="x_onZs21lOooV9aep6qS">
    <mxGraphModel dx="1050" dy="557" grid="1" gridSize="10" guides="1" tooltips="1" connect="1" arrows="1" fold="1" page="1" pageScale="1" pageWidth="827" pageHeight="1169" math="0" shadow="0">
      <root>
        <mxCell id="0" />
        <mxCell id="1" parent="0" />
        <mxCell id="UhiFREcNUlNtIZrKmHyf-1" value="" style="whiteSpace=wrap;html=1;" parent="1" vertex="1">
          <mxGeometry x="130" y="30" width="580" height="770" as="geometry" />
        </mxCell>
        <mxCell id="UhiFREcNUlNtIZrKmHyf-2" value="&lt;div&gt;Gerenciar acervo&lt;/div&gt;" style="ellipse;whiteSpace=wrap;html=1;" parent="1" vertex="1">
          <mxGeometry x="530" y="100" width="120" height="80" as="geometry" />
        </mxCell>
        <mxCell id="UhiFREcNUlNtIZrKmHyf-3" value="Emitir relatórios" style="ellipse;whiteSpace=wrap;html=1;" parent="1" vertex="1">
          <mxGeometry x="520" y="440" width="120" height="80" as="geometry" />
        </mxCell>
        <mxCell id="UhiFREcNUlNtIZrKmHyf-4" value="&lt;div&gt;Devolver livros&lt;/div&gt;" style="ellipse;whiteSpace=wrap;html=1;" parent="1" vertex="1">
          <mxGeometry x="200" y="560" width="120" height="80" as="geometry" />
        </mxCell>
        <mxCell id="UhiFREcNUlNtIZrKmHyf-5" value="&lt;div&gt;Realizar empréstimo&lt;/div&gt;" style="ellipse;whiteSpace=wrap;html=1;" parent="1" vertex="1">
          <mxGeometry x="200" y="210" width="120" height="80" as="geometry" />
        </mxCell>
        <mxCell id="UhiFREcNUlNtIZrKmHyf-6" value="&lt;div&gt;Notificar os usuários&lt;/div&gt;" style="ellipse;whiteSpace=wrap;html=1;" parent="1" vertex="1">
          <mxGeometry x="400" y="700" width="120" height="80" as="geometry" />
        </mxCell>
        <mxCell id="UhiFREcNUlNtIZrKmHyf-7" value="&lt;div&gt;Renovar empréstimo&lt;/div&gt;" style="ellipse;whiteSpace=wrap;html=1;" parent="1" vertex="1">
          <mxGeometry x="200" y="690" width="120" height="80" as="geometry" />
        </mxCell>
        <mxCell id="UhiFREcNUlNtIZrKmHyf-8" value="&lt;div&gt;Reservar livros&lt;/div&gt;" style="ellipse;whiteSpace=wrap;html=1;" parent="1" vertex="1">
          <mxGeometry x="200" y="340" width="120" height="80" as="geometry" />
        </mxCell>
        <mxCell id="UhiFREcNUlNtIZrKmHyf-9" value="&lt;div&gt;Cadastrar livros&lt;/div&gt;" style="ellipse;whiteSpace=wrap;html=1;" parent="1" vertex="1">
          <mxGeometry x="540" y="320" width="120" height="80" as="geometry" />
        </mxCell>
        <mxCell id="UhiFREcNUlNtIZrKmHyf-10" value="&lt;div&gt;Interagir no fórum&lt;/div&gt;" style="ellipse;whiteSpace=wrap;html=1;" parent="1" vertex="1">
          <mxGeometry x="200" y="80" width="120" height="80" as="geometry" />
        </mxCell>
        <mxCell id="UhiFREcNUlNtIZrKmHyf-11" value="&lt;div&gt;Adicionar aos favoritos&lt;/div&gt;" style="ellipse;whiteSpace=wrap;html=1;" parent="1" vertex="1">
          <mxGeometry x="200" y="450" width="120" height="80" as="geometry" />
        </mxCell>
        <mxCell id="UhiFREcNUlNtIZrKmHyf-12" value="&lt;div&gt;Bloquear as reservas e empréstimos de livros&lt;/div&gt;" style="ellipse;whiteSpace=wrap;html=1;" parent="1" vertex="1">
          <mxGeometry x="510" y="560" width="140" height="100" as="geometry" />
        </mxCell>
        <mxCell id="UhiFREcNUlNtIZrKmHyf-13" value="&lt;div&gt;Realizar cadastro&lt;/div&gt;" style="ellipse;whiteSpace=wrap;html=1;" parent="1" vertex="1">
          <mxGeometry x="430" y="200" width="120" height="80" as="geometry" />
        </mxCell>
        <mxCell id="UhiFREcNUlNtIZrKmHyf-14" value="Administrador" style="shape=umlActor;verticalLabelPosition=bottom;verticalAlign=top;html=1;outlineConnect=0;" parent="1" vertex="1">
          <mxGeometry x="760" y="260" width="40" height="80" as="geometry" />
        </mxCell>
        <mxCell id="UhiFREcNUlNtIZrKmHyf-15" value="Usuário" style="shape=umlActor;verticalLabelPosition=bottom;verticalAlign=top;html=1;outlineConnect=0;" parent="1" vertex="1">
          <mxGeometry x="20" y="300" width="40" height="80" as="geometry" />
        </mxCell>
        <mxCell id="UhiFREcNUlNtIZrKmHyf-16" value="" style="endArrow=none;html=1;rounded=0;entryX=0;entryY=0.5;entryDx=0;entryDy=0;" parent="1" target="UhiFREcNUlNtIZrKmHyf-10" edge="1">
          <mxGeometry width="50" height="50" relative="1" as="geometry">
            <mxPoint x="70" y="290" as="sourcePoint" />
            <mxPoint x="440" y="330" as="targetPoint" />
          </mxGeometry>
        </mxCell>
        <mxCell id="UhiFREcNUlNtIZrKmHyf-17" value="" style="endArrow=none;html=1;rounded=0;entryX=0;entryY=0.5;entryDx=0;entryDy=0;" parent="1" target="UhiFREcNUlNtIZrKmHyf-5" edge="1">
          <mxGeometry width="50" height="50" relative="1" as="geometry">
            <mxPoint x="90" y="320" as="sourcePoint" />
            <mxPoint x="440" y="330" as="targetPoint" />
          </mxGeometry>
        </mxCell>
        <mxCell id="UhiFREcNUlNtIZrKmHyf-18" value="" style="endArrow=none;html=1;rounded=0;entryX=0;entryY=0.5;entryDx=0;entryDy=0;" parent="1" target="UhiFREcNUlNtIZrKmHyf-8" edge="1">
          <mxGeometry width="50" height="50" relative="1" as="geometry">
            <mxPoint x="90" y="350" as="sourcePoint" />
            <mxPoint x="440" y="330" as="targetPoint" />
          </mxGeometry>
        </mxCell>
        <mxCell id="UhiFREcNUlNtIZrKmHyf-19" value="" style="endArrow=classic;html=1;rounded=0;dashed=1;exitX=1.003;exitY=0.602;exitDx=0;exitDy=0;exitPerimeter=0;" parent="1" source="UhiFREcNUlNtIZrKmHyf-10" target="UhiFREcNUlNtIZrKmHyf-13" edge="1">
          <mxGeometry width="50" height="50" relative="1" as="geometry">
            <mxPoint x="390" y="380" as="sourcePoint" />
            <mxPoint x="440" y="330" as="targetPoint" />
          </mxGeometry>
        </mxCell>
        <mxCell id="UhiFREcNUlNtIZrKmHyf-20" value="&amp;lt;&amp;lt;include&amp;gt;&amp;gt;" style="text;html=1;align=center;verticalAlign=middle;whiteSpace=wrap;rounded=0;rotation=30;" parent="1" vertex="1">
          <mxGeometry x="370" y="140" width="60" height="30" as="geometry" />
        </mxCell>
        <mxCell id="UhiFREcNUlNtIZrKmHyf-21" value="" style="endArrow=classic;html=1;rounded=0;dashed=1;exitX=1;exitY=0.5;exitDx=0;exitDy=0;entryX=-0.007;entryY=0.602;entryDx=0;entryDy=0;entryPerimeter=0;" parent="1" source="UhiFREcNUlNtIZrKmHyf-5" target="UhiFREcNUlNtIZrKmHyf-13" edge="1">
          <mxGeometry width="50" height="50" relative="1" as="geometry">
            <mxPoint x="390" y="270.5" as="sourcePoint" />
            <mxPoint x="467" y="349.5" as="targetPoint" />
          </mxGeometry>
        </mxCell>
        <mxCell id="UhiFREcNUlNtIZrKmHyf-22" value="&amp;lt;&amp;lt;include&amp;gt;&amp;gt;" style="text;html=1;align=center;verticalAlign=middle;whiteSpace=wrap;rounded=0;" parent="1" vertex="1">
          <mxGeometry x="340" y="220" width="60" height="30" as="geometry" />
        </mxCell>
        <mxCell id="UhiFREcNUlNtIZrKmHyf-23" value="" style="endArrow=classic;html=1;rounded=0;dashed=1;exitX=1;exitY=0.5;exitDx=0;exitDy=0;entryX=0.233;entryY=0.892;entryDx=0;entryDy=0;entryPerimeter=0;" parent="1" source="UhiFREcNUlNtIZrKmHyf-8" target="UhiFREcNUlNtIZrKmHyf-13" edge="1">
          <mxGeometry width="50" height="50" relative="1" as="geometry">
            <mxPoint x="430" y="390" as="sourcePoint" />
            <mxPoint x="507" y="469" as="targetPoint" />
          </mxGeometry>
        </mxCell>
        <mxCell id="UhiFREcNUlNtIZrKmHyf-24" value="&amp;lt;&amp;lt;include&amp;gt;&amp;gt;" style="text;html=1;align=center;verticalAlign=middle;whiteSpace=wrap;rounded=0;rotation=-38;" parent="1" vertex="1">
          <mxGeometry x="340" y="310" width="60" height="30" as="geometry" />
        </mxCell>
        <mxCell id="UhiFREcNUlNtIZrKmHyf-25" value="" style="endArrow=classic;html=1;rounded=0;dashed=1;exitX=1;exitY=0.5;exitDx=0;exitDy=0;entryX=0.5;entryY=1;entryDx=0;entryDy=0;" parent="1" source="UhiFREcNUlNtIZrKmHyf-11" target="UhiFREcNUlNtIZrKmHyf-13" edge="1">
          <mxGeometry width="50" height="50" relative="1" as="geometry">
            <mxPoint x="330" y="390" as="sourcePoint" />
            <mxPoint x="468" y="281" as="targetPoint" />
          </mxGeometry>
        </mxCell>
        <mxCell id="UhiFREcNUlNtIZrKmHyf-26" value="&amp;lt;&amp;lt;include&amp;gt;&amp;gt;" style="text;html=1;align=center;verticalAlign=middle;whiteSpace=wrap;rounded=0;rotation=-50;" parent="1" vertex="1">
          <mxGeometry x="360" y="365" width="60" height="30" as="geometry" />
        </mxCell>
        <mxCell id="UhiFREcNUlNtIZrKmHyf-27" value="" style="endArrow=none;html=1;rounded=0;" parent="1" target="UhiFREcNUlNtIZrKmHyf-11" edge="1">
          <mxGeometry width="50" height="50" relative="1" as="geometry">
            <mxPoint x="80" y="380" as="sourcePoint" />
            <mxPoint x="440" y="530" as="targetPoint" />
          </mxGeometry>
        </mxCell>
        <mxCell id="UhiFREcNUlNtIZrKmHyf-28" value="" style="endArrow=none;html=1;rounded=0;entryX=0;entryY=0.5;entryDx=0;entryDy=0;" parent="1" target="UhiFREcNUlNtIZrKmHyf-4" edge="1">
          <mxGeometry width="50" height="50" relative="1" as="geometry">
            <mxPoint x="60" y="400" as="sourcePoint" />
            <mxPoint x="440" y="530" as="targetPoint" />
          </mxGeometry>
        </mxCell>
        <mxCell id="UhiFREcNUlNtIZrKmHyf-29" value="" style="endArrow=none;html=1;rounded=0;entryX=0;entryY=0.5;entryDx=0;entryDy=0;" parent="1" target="UhiFREcNUlNtIZrKmHyf-7" edge="1">
          <mxGeometry width="50" height="50" relative="1" as="geometry">
            <mxPoint x="30" y="400" as="sourcePoint" />
            <mxPoint x="440" y="530" as="targetPoint" />
          </mxGeometry>
        </mxCell>
        <mxCell id="UhiFREcNUlNtIZrKmHyf-30" value="" style="endArrow=none;html=1;rounded=0;exitX=1;exitY=1;exitDx=0;exitDy=0;" parent="1" source="UhiFREcNUlNtIZrKmHyf-2" edge="1">
          <mxGeometry width="50" height="50" relative="1" as="geometry">
            <mxPoint x="390" y="580" as="sourcePoint" />
            <mxPoint x="750" y="250" as="targetPoint" />
          </mxGeometry>
        </mxCell>
        <mxCell id="UhiFREcNUlNtIZrKmHyf-31" value="" style="endArrow=none;html=1;rounded=0;exitX=0.947;exitY=0.317;exitDx=0;exitDy=0;exitPerimeter=0;" parent="1" source="UhiFREcNUlNtIZrKmHyf-9" edge="1">
          <mxGeometry width="50" height="50" relative="1" as="geometry">
            <mxPoint x="390" y="380" as="sourcePoint" />
            <mxPoint x="750" y="300" as="targetPoint" />
          </mxGeometry>
        </mxCell>
        <mxCell id="UhiFREcNUlNtIZrKmHyf-32" value="" style="endArrow=none;html=1;rounded=0;exitX=0.937;exitY=0.272;exitDx=0;exitDy=0;exitPerimeter=0;" parent="1" source="UhiFREcNUlNtIZrKmHyf-3" edge="1">
          <mxGeometry width="50" height="50" relative="1" as="geometry">
            <mxPoint x="654" y="320" as="sourcePoint" />
            <mxPoint x="740" y="350" as="targetPoint" />
          </mxGeometry>
        </mxCell>
        <mxCell id="UhiFREcNUlNtIZrKmHyf-33" value="" style="endArrow=classic;html=1;rounded=0;dashed=1;" parent="1" source="UhiFREcNUlNtIZrKmHyf-2" edge="1">
          <mxGeometry width="50" height="50" relative="1" as="geometry">
            <mxPoint x="330" y="138" as="sourcePoint" />
            <mxPoint x="490" y="200" as="targetPoint" />
          </mxGeometry>
        </mxCell>
        <mxCell id="UhiFREcNUlNtIZrKmHyf-34" value="" style="endArrow=classic;html=1;rounded=0;dashed=1;entryX=1;entryY=1;entryDx=0;entryDy=0;" parent="1" source="UhiFREcNUlNtIZrKmHyf-9" target="UhiFREcNUlNtIZrKmHyf-13" edge="1">
          <mxGeometry width="50" height="50" relative="1" as="geometry">
            <mxPoint x="340" y="148" as="sourcePoint" />
            <mxPoint x="467" y="232" as="targetPoint" />
          </mxGeometry>
        </mxCell>
        <mxCell id="UhiFREcNUlNtIZrKmHyf-35" value="&amp;lt;&amp;lt;include&amp;gt;&amp;gt;" style="text;html=1;align=center;verticalAlign=middle;whiteSpace=wrap;rounded=0;rotation=30;" parent="1" vertex="1">
          <mxGeometry x="490" y="160" width="60" height="30" as="geometry" />
        </mxCell>
        <mxCell id="UhiFREcNUlNtIZrKmHyf-36" value="&amp;lt;&amp;lt;include&amp;gt;&amp;gt;" style="text;html=1;align=center;verticalAlign=middle;whiteSpace=wrap;rounded=0;rotation=-15;" parent="1" vertex="1">
          <mxGeometry x="570" y="275" width="60" height="30" as="geometry" />
        </mxCell>
        <mxCell id="UhiFREcNUlNtIZrKmHyf-37" value="" style="endArrow=none;html=1;rounded=0;exitX=0.96;exitY=0.298;exitDx=0;exitDy=0;exitPerimeter=0;" parent="1" source="UhiFREcNUlNtIZrKmHyf-12" edge="1">
          <mxGeometry width="50" height="50" relative="1" as="geometry">
            <mxPoint x="390" y="580" as="sourcePoint" />
            <mxPoint x="770" y="370" as="targetPoint" />
          </mxGeometry>
        </mxCell>
        <mxCell id="UhiFREcNUlNtIZrKmHyf-38" value="" style="endArrow=classic;html=1;rounded=0;dashed=1;exitX=0;exitY=1;exitDx=0;exitDy=0;entryX=0.617;entryY=0.053;entryDx=0;entryDy=0;entryPerimeter=0;" parent="1" source="UhiFREcNUlNtIZrKmHyf-12" target="UhiFREcNUlNtIZrKmHyf-6" edge="1">
          <mxGeometry width="50" height="50" relative="1" as="geometry">
            <mxPoint x="330" y="500" as="sourcePoint" />
            <mxPoint x="500" y="290" as="targetPoint" />
          </mxGeometry>
        </mxCell>
        <mxCell id="UhiFREcNUlNtIZrKmHyf-39" value="&amp;lt;&amp;lt;include&amp;gt;&amp;gt;" style="text;html=1;align=center;verticalAlign=middle;whiteSpace=wrap;rounded=0;rotation=-50;" parent="1" vertex="1">
          <mxGeometry x="460" y="650" width="60" height="30" as="geometry" />
        </mxCell>
        <mxCell id="mc9L3D9BQtDPFlPG5Ax0-1" value="Biblioteca" style="text;html=1;align=center;verticalAlign=middle;whiteSpace=wrap;rounded=0;" vertex="1" parent="1">
          <mxGeometry x="390" y="40" width="60" height="30" as="geometry" />
        </mxCell>
      </root>
    </mxGraphModel>
  </diagram>
</mxfile>
